<svg width="15.1" height="11.4" viewBox="0 0 15.1 11.4" xmlns="http://www.w3.org/2000/svg" xmlns:xlink="http://www.w3.org/1999/xlink" overflow="visible"><defs></defs><g><g><path d="M15.1 9.7C15.1 9.7 15.1 9.7 15.1 9.7L0.1 9.7C0.1 9.7 0.1 9.7 -3.60822e-16 9.7 -3.60822e-16 9.7 -3.60822e-16 9.7 -3.60822e-16 9.8 -3.60822e-16 9.8 0.2 11.4 2 11.4L13.2 11.4C14.9 11.4 15.1 9.8 15.1 9.7 15.1 9.8 15.1 9.8 15.1 9.7L15.1 9.7ZM8.7 10.9 6.4 10.9 6.4 10.3 8.7 10.3 8.7 10.9Z"/></g><path d="M1.6 9.1 13.5 9.1C13.7 9.1 13.8 8.9 13.8 8.7L13.8 0.4C13.8 0.2 13.7 0 13.5 0L1.6 0C1.5 0 1.3 0.2 1.3 0.4L1.3 8.8C1.3 8.9 1.5 9.1 1.6 9.1L1.6 9.1ZM2.4 1.3 12.7 1.3 12.7 7.9 2.4 7.9 2.4 1.3Z"/></g></svg>