<svg width="78.6" height="89.9" viewBox="0 0 78.6 89.9" xmlns="http://www.w3.org/2000/svg" xmlns:xlink="http://www.w3.org/1999/xlink" overflow="visible"><defs></defs><g><path d="M73 0 5.6 0C2.5 0 0 2.5 0 5.6L0 84.2C0 87.3 2.5 89.8 5.6 89.8L56.2 89.8 78.7 67.3 78.7 5.6C78.6 2.5 76.1 0 73 0L73 0ZM56.2 81.9 56.2 67.4 70.7 67.4 56.2 81.9ZM73 61.8 56.2 61.8C53.1 61.8 50.6 64.3 50.6 67.4L50.6 84.3 5.6 84.3 5.6 5.6 73 5.6 73 61.8ZM11.2 19.7C11.2 18.1 12.5 16.9 14 16.9L64.6 16.9C66.2 16.9 67.4 18.2 67.4 19.7 67.4 21.3 66.1 22.5 64.6 22.5L14 22.5C12.5 22.5 11.2 21.2 11.2 19.7L11.2 19.7ZM11.2 36.5C11.2 34.9 12.5 33.7 14 33.7L64.6 33.7C66.2 33.7 67.4 35 67.4 36.5 67.4 38.1 66.1 39.3 64.6 39.3L14 39.3C12.5 39.3 11.2 38.1 11.2 36.5L11.2 36.5ZM11.2 53.4C11.2 51.8 12.5 50.6 14 50.6L64.6 50.6C66.2 50.6 67.4 51.9 67.4 53.4 67.4 55 66.1 56.2 64.6 56.2L14 56.2C12.5 56.2 11.2 54.9 11.2 53.4L11.2 53.4Z"/></g></svg>