<svg width="12.4" height="15.9" viewBox="0 0 12.4 15.9" xmlns="http://www.w3.org/2000/svg" xmlns:xlink="http://www.w3.org/1999/xlink" overflow="hidden"><defs></defs><g><path d="M0 11.8 0 14.9C0 15.5 0.5 15.9 1 15.9L11.4 15.9C12 15.9 12.4 15.4 12.4 14.9L12.4 11.8C12.4 10.1 11 8.7 9.3 8.7L9.1 8.7C9 8.7 8.8 8.8 8.8 9 8.7 10.3 7.6 11.3 6.2 11.3 4.9 11.3 3.7 10.3 3.6 9 3.6 8.9 3.5 8.7 3.3 8.7L3.1 8.7C1.4 8.7 0 10.1 0 11.8L0 11.8Z" fill="#010101"/><path d="M6.2 8.5C8.3 8.5 9.9 6.6 9.9 4.2 10 1.9 8.3 0 6.2 0 4.2 0 2.5 1.9 2.5 4.3 2.5 6.6 4.2 8.5 6.2 8.5L6.2 8.5ZM6.2 4.3C7.2 4.3 8 3.8 8.2 3.1 8.6 3.6 8.8 4.1 8.8 4.8 8.8 6.3 7.6 7.5 6.1 7.5 4.6 7.5 3.4 6.3 3.4 4.8 3.6 4.1 5.2 4.3 6.2 4.3L6.2 4.3Z" fill="#010101"/></g></svg>