<svg width="70" height="63.4" viewBox="0 0 70 63.4" xmlns="http://www.w3.org/2000/svg" xmlns:xlink="http://www.w3.org/1999/xlink" overflow="hidden"><defs></defs><g><path d="M5.6 46.3C11.6 54.6 13.9 57.5 15.5 58.1 17.2 58.8 38.1 63.3 42.6 63.3 45.2 63.3 55.7 58.5 60 56.4 60.5 56.2 60.8 55.8 61 55.4L65.6 44.1C65.6 44 65.7 44 65.7 43.9 67 39.2 68.1 34.4 69.1 29.7L69.8 26.7C71 21.2 67 18.1 63.6 15.3 63.3 15 62.9 14.7 62.6 14.5 61.2 13.4 58.9 10.7 56.7 8.1 53.1 3.8 50.7 1.1 48.9 0.3 48.7 0.2 48.5 0.1 48.3 0.1 48.3 0.1 48.3 0.1 48.3 0.1 48.1 0.1 47.8 0.1 47.6 0.1 45.5 0.3 32 1.7 26.6 2.6 26.3 2.6 26 2.8 25.7 3 21.4 6 7.7 16.4 6.1 18.9 6.1 18.9 6.1 19 6 19 6 19 6 19 6 19 3.8 22.5 2.7 27.6 1.8 31.7 1.3 34.1 0.7 36.4 0.2 37.3-0.2 38.1-0.1 39 0.6 39.6 1.4 40.5 3.5 43.5 5.6 46.3ZM8.8 44C7.5 42.2 6.4 40.8 5.6 39.6 9 39.5 13 39.1 16.5 38.7 20.2 38.3 25.3 37.7 26.5 38.1 30.4 41 39 53.3 41.2 59.2 35.3 58.6 19 55.1 17 54.4 15.8 53.5 11.4 47.6 8.8 44ZM65.2 28.9C64.2 33.5 63.2 38.2 61.9 42.8L57.6 53.3C53.1 55.4 48.2 57.5 45.1 58.7 45.1 58.6 45.1 58.5 45 58.4 43.1 53 35.4 41.2 30.2 36.3 32.1 33 35.5 26.3 36.8 21.5 37.1 21.6 37.5 21.7 37.9 21.8 39.1 22.2 40.8 22.7 42.7 23.2 45.6 24.1 48.9 25 51.2 25.8 53.4 26.5 55.7 26.7 58 26.7 59.5 26.7 61 26.6 62.4 26.5 63.5 26.4 64.6 26.4 65.7 26.4L65.2 28.9ZM47.1 4.1C48.1 5.9 49.4 11.2 50.2 14.6 51 17.8 51.6 20.2 52.2 21.9 49.8 21.1 46.7 20.2 43.9 19.3 41.4 18.6 38.7 17.7 37.8 17.4 37.6 17.3 37.5 17.2 37.3 17.1 36.8 15.2 35.2 12.7 32.8 9 32.1 7.9 31.4 6.8 30.8 5.8 36.3 5.2 44.3 4.4 47.1 4.1ZM60 17.6C60.4 17.9 60.7 18.2 61.1 18.5 63 20 64.5 21.2 65.3 22.5 64.3 22.5 63.3 22.6 62.3 22.6 60.5 22.7 58.7 22.8 57 22.7 56.9 22.6 56.9 22.4 56.8 22.3 56.2 21.5 55 16.9 54.2 13.6 53.9 12.4 53.6 11.3 53.4 10.3 53.5 10.4 53.6 10.5 53.7 10.7 56 13.5 58.3 16.2 60 17.6ZM26.7 7C27.5 8.3 28.5 9.8 29.4 11.3 30.9 13.7 33.3 17.2 33.4 18.3 33.5 20.7 30.6 27.6 27.4 33.2 24.2 30.8 17.3 25.2 10.7 19.8 13.5 17.2 20.2 11.9 26.7 7ZM8.5 23.1C10.4 24.7 13.6 27.2 16.7 29.8 18.8 31.5 20.6 33 22.2 34.1 20.5 34.2 18.6 34.4 16.2 34.7 12.5 35.1 8.5 35.6 5.1 35.6 5.3 34.7 5.6 33.7 5.8 32.6 6.4 29.6 7.2 25.9 8.5 23.1Z"/></g></svg>