<svg width="63.4" height="77.2" viewBox="0 0 63.4 77.2" xmlns="http://www.w3.org/2000/svg" xmlns:xlink="http://www.w3.org/1999/xlink" overflow="hidden"><defs></defs><g><g><path d="M44.2 49.5C43.9 49 42.5 47.4 42.1 46.8 41.4 45.9 40.6 46 39.9 46.8 38.3 48.7 36.1 51.3 34.9 52.8 34.1 53.8 33.9 54.6 34.6 55.3 34.9 55.6 36.1 57 36.1 57 33.7 62.3 34.7 68.6 39 72.9 44.6 78.5 53.6 78.5 59.2 72.9 64.8 67.3 64.8 58.3 59.2 52.7 55.2 48.8 49.3 47.7 44.2 49.5L44.2 49.5ZM54.1 67.9C51.5 70.5 47.3 70.5 44.8 67.9 42.2 65.3 42.2 61.1 44.8 58.6 47.4 56 51.6 56 54.1 58.6 56.7 61.2 56.7 65.4 54.1 67.9L54.1 67.9Z"/><path d="M21.9 39.6C23.5 37.4 26.1 34.1 27.5 32.2 28.2 31.3 28.3 30.5 27.5 29.5 22.4 22.5 7 1.5 7 1.5 4.9-0.9 2.5-0.4 1.7 2.8L0.2 8.6C-0.6 11.8 0.6 16.3 2.9 18.6 2.9 18.6 15.6 34.4 19.7 39.7 20.5 40.5 21.4 40.4 21.9 39.6L21.9 39.6Z"/><path d="M4.3 52C-1.3 57.6-1.3 66.6 4.3 72.2 9.9 77.8 18.9 77.8 24.5 72.2 28.8 67.9 29.8 61.5 27.4 56.3L58.1 19.7C60.4 17.4 61.7 12.9 60.8 9.7L59.3 3.9C58.5 0.7 56.1 0.2 54 2.7L20.2 47.5C19.9 47.9 19.6 48.3 19.3 48.8 14.3 46.9 8.4 48 4.3 52L4.3 52ZM9.4 57.8C12 55.2 16.2 55.2 18.7 57.8 21.3 60.4 21.3 64.6 18.7 67.1 16.1 69.7 11.9 69.7 9.4 67.1 6.9 64.5 6.9 60.4 9.4 57.8L9.4 57.8Z"/></g></g></svg>